# xmcd
#
# Track frame offsets: 
#        182
#        16035
#        31165
#        57000
#        77360
#        91107
#        104767
#        121245
#        137595
#        155082
#        177932
#        195505
#
# Disc length: 2766 seconds
#
# Revision: 0
# Processed by: cddbd v1.5.2PL0 Copyright (c) Steve Scherf et al.
# Submitted via: ExactAudioCopyFreeDBPlugin 1.0
#
DISCID=880acc0c
DTITLE=Obstawa Prezydenta - Musisz to miec
DYEAR=1994
DGENRE=Blues
TTITLE0=Tak musisz to miec
TTITLE1=Cygaro z bolca
TTITLE2=Troche o sobie i nadzieji
TTITLE3=Taka zimna
TTITLE4=Super Zocha
TTITLE5=Motorowe zycie
TTITLE6=Pelny luz
TTITLE7=Ty i ja nasza potega
TTITLE8=Hazard boogie
TTITLE9=Kazdy chlopak kazda kobieta
TTITLE10=Balladka o zwyklej P.
TTITLE11=Blues dla Gutka i Lysego
EXTD=
EXTT0=
EXTT1=
EXTT2=
EXTT3=
EXTT4=
EXTT5=
EXTT6=
EXTT7=
EXTT8=
EXTT9=
EXTT10=
EXTT11=
PLAYORDER=
